<mxfile host="app.diagrams.net" modified="2024-01-20T19:24:36.636Z" agent="Mozilla/5.0 (Windows NT 10.0; Win64; x64) AppleWebKit/537.36 (KHTML, like Gecko) Chrome/120.0.0.0 Safari/537.36 OPR/106.0.0.0 (Edition Yx 05)" etag="via6rO6qiSXy3v9u1yQG" version="22.1.21" type="github">
  <diagram id="R2lEEEUBdFMjLlhIrx00" name="Page-1">
    <mxGraphModel dx="1010" dy="564" grid="1" gridSize="10" guides="1" tooltips="1" connect="1" arrows="1" fold="1" page="1" pageScale="1" pageWidth="10000" pageHeight="10000" background="none" math="0" shadow="0" extFonts="Permanent Marker^https://fonts.googleapis.com/css?family=Permanent+Marker">
      <root>
        <mxCell id="0" />
        <mxCell id="1" parent="0" />
        <mxCell id="G1r1ogDtnRM8wa2x4b39-2" value="Система технического &lt;br&gt;зрения" style="rounded=0;whiteSpace=wrap;html=1;" vertex="1" parent="1">
          <mxGeometry x="560" y="200" width="150" height="70" as="geometry" />
        </mxCell>
        <mxCell id="G1r1ogDtnRM8wa2x4b39-3" value="0" style="rounded=0;whiteSpace=wrap;html=1;" vertex="1" parent="1">
          <mxGeometry x="690" y="250" width="20" height="20" as="geometry" />
        </mxCell>
        <mxCell id="G1r1ogDtnRM8wa2x4b39-8" value="" style="endArrow=classic;html=1;rounded=0;" edge="1" parent="1">
          <mxGeometry width="50" height="50" relative="1" as="geometry">
            <mxPoint x="710" y="234.57" as="sourcePoint" />
            <mxPoint x="790" y="234.57" as="targetPoint" />
          </mxGeometry>
        </mxCell>
        <mxCell id="G1r1ogDtnRM8wa2x4b39-9" value="Координаты&lt;br&gt;деталей" style="text;html=1;align=center;verticalAlign=middle;resizable=0;points=[];autosize=1;strokeColor=none;fillColor=none;" vertex="1" parent="1">
          <mxGeometry x="710" y="190" width="90" height="40" as="geometry" />
        </mxCell>
        <mxCell id="G1r1ogDtnRM8wa2x4b39-16" value="" style="endArrow=classic;html=1;rounded=0;entryX=0.25;entryY=1;entryDx=0;entryDy=0;" edge="1" parent="1">
          <mxGeometry width="50" height="50" relative="1" as="geometry">
            <mxPoint x="589.9999999999999" y="320" as="sourcePoint" />
            <mxPoint x="589.9999999999999" y="270" as="targetPoint" />
          </mxGeometry>
        </mxCell>
        <mxCell id="G1r1ogDtnRM8wa2x4b39-17" value="Оператор" style="text;html=1;align=center;verticalAlign=middle;resizable=0;points=[];autosize=1;strokeColor=none;fillColor=none;" vertex="1" parent="1">
          <mxGeometry x="510" y="280" width="80" height="30" as="geometry" />
        </mxCell>
        <mxCell id="G1r1ogDtnRM8wa2x4b39-20" value="" style="endArrow=classic;html=1;rounded=0;entryX=0.25;entryY=1;entryDx=0;entryDy=0;" edge="1" parent="1">
          <mxGeometry width="50" height="50" relative="1" as="geometry">
            <mxPoint x="675" y="320" as="sourcePoint" />
            <mxPoint x="675" y="270" as="targetPoint" />
          </mxGeometry>
        </mxCell>
        <mxCell id="G1r1ogDtnRM8wa2x4b39-21" value="ЭВМ" style="text;html=1;align=center;verticalAlign=middle;resizable=0;points=[];autosize=1;strokeColor=none;fillColor=none;" vertex="1" parent="1">
          <mxGeometry x="675" y="290" width="50" height="30" as="geometry" />
        </mxCell>
        <mxCell id="G1r1ogDtnRM8wa2x4b39-26" value="" style="endArrow=classic;html=1;rounded=0;entryX=0.165;entryY=-0.012;entryDx=0;entryDy=0;entryPerimeter=0;" edge="1" parent="1">
          <mxGeometry width="50" height="50" relative="1" as="geometry">
            <mxPoint x="634.5899999999997" y="159" as="sourcePoint" />
            <mxPoint x="634.3899999999999" y="200" as="targetPoint" />
          </mxGeometry>
        </mxCell>
        <mxCell id="G1r1ogDtnRM8wa2x4b39-27" value="Калибровка" style="text;html=1;align=center;verticalAlign=middle;resizable=0;points=[];autosize=1;strokeColor=none;fillColor=none;" vertex="1" parent="1">
          <mxGeometry x="620" y="124" width="90" height="30" as="geometry" />
        </mxCell>
        <mxCell id="G1r1ogDtnRM8wa2x4b39-28" value="" style="endArrow=classic;html=1;rounded=0;entryX=0.25;entryY=1;entryDx=0;entryDy=0;" edge="1" parent="1">
          <mxGeometry width="50" height="50" relative="1" as="geometry">
            <mxPoint x="634.6" y="320" as="sourcePoint" />
            <mxPoint x="634.6" y="270" as="targetPoint" />
          </mxGeometry>
        </mxCell>
        <mxCell id="G1r1ogDtnRM8wa2x4b39-29" value="Камера" style="text;html=1;align=center;verticalAlign=middle;resizable=0;points=[];autosize=1;strokeColor=none;fillColor=none;" vertex="1" parent="1">
          <mxGeometry x="600" y="320" width="70" height="30" as="geometry" />
        </mxCell>
        <mxCell id="G1r1ogDtnRM8wa2x4b39-30" value="Захватить&lt;br&gt;&amp;nbsp;изображение" style="rounded=0;whiteSpace=wrap;html=1;" vertex="1" parent="1">
          <mxGeometry x="230" y="740" width="150" height="70" as="geometry" />
        </mxCell>
        <mxCell id="G1r1ogDtnRM8wa2x4b39-31" value="1" style="rounded=0;whiteSpace=wrap;html=1;" vertex="1" parent="1">
          <mxGeometry x="360" y="790" width="20" height="20" as="geometry" />
        </mxCell>
        <mxCell id="G1r1ogDtnRM8wa2x4b39-34" value="" style="endArrow=classic;html=1;rounded=0;" edge="1" parent="1">
          <mxGeometry width="50" height="50" relative="1" as="geometry">
            <mxPoint x="1060" y="873.3499999999999" as="sourcePoint" />
            <mxPoint x="1140" y="873.3499999999999" as="targetPoint" />
          </mxGeometry>
        </mxCell>
        <mxCell id="G1r1ogDtnRM8wa2x4b39-35" value="Координаты&lt;br&gt;деталей" style="text;html=1;align=center;verticalAlign=middle;resizable=0;points=[];autosize=1;strokeColor=none;fillColor=none;" vertex="1" parent="1">
          <mxGeometry x="1060" y="830" width="90" height="40" as="geometry" />
        </mxCell>
        <mxCell id="G1r1ogDtnRM8wa2x4b39-36" value="" style="endArrow=classic;html=1;rounded=0;entryX=0.25;entryY=1;entryDx=0;entryDy=0;" edge="1" parent="1">
          <mxGeometry width="50" height="50" relative="1" as="geometry">
            <mxPoint x="509.9999999999999" y="860" as="sourcePoint" />
            <mxPoint x="509.9999999999999" y="810" as="targetPoint" />
          </mxGeometry>
        </mxCell>
        <mxCell id="G1r1ogDtnRM8wa2x4b39-37" value="Оператор" style="text;html=1;align=center;verticalAlign=middle;resizable=0;points=[];autosize=1;strokeColor=none;fillColor=none;" vertex="1" parent="1">
          <mxGeometry x="430" y="841.52" width="80" height="30" as="geometry" />
        </mxCell>
        <mxCell id="G1r1ogDtnRM8wa2x4b39-42" value="" style="endArrow=classic;html=1;rounded=0;entryX=0.25;entryY=1;entryDx=0;entryDy=0;" edge="1" parent="1">
          <mxGeometry width="50" height="50" relative="1" as="geometry">
            <mxPoint x="254.60000000000002" y="860" as="sourcePoint" />
            <mxPoint x="254.60000000000002" y="810" as="targetPoint" />
          </mxGeometry>
        </mxCell>
        <mxCell id="G1r1ogDtnRM8wa2x4b39-43" value="Камера" style="text;html=1;align=center;verticalAlign=middle;resizable=0;points=[];autosize=1;strokeColor=none;fillColor=none;" vertex="1" parent="1">
          <mxGeometry x="180" y="841.52" width="70" height="30" as="geometry" />
        </mxCell>
        <mxCell id="G1r1ogDtnRM8wa2x4b39-44" value="" style="endArrow=classic;html=1;rounded=0;entryX=0;entryY=0.5;entryDx=0;entryDy=0;exitX=1;exitY=0.5;exitDx=0;exitDy=0;" edge="1" parent="1" source="G1r1ogDtnRM8wa2x4b39-30" target="G1r1ogDtnRM8wa2x4b39-46">
          <mxGeometry width="50" height="50" relative="1" as="geometry">
            <mxPoint x="380" y="774.8700000000001" as="sourcePoint" />
            <mxPoint x="460" y="774.8700000000001" as="targetPoint" />
          </mxGeometry>
        </mxCell>
        <mxCell id="G1r1ogDtnRM8wa2x4b39-46" value="Предобработать изображение" style="rounded=0;whiteSpace=wrap;html=1;" vertex="1" parent="1">
          <mxGeometry x="460" y="740" width="150" height="70" as="geometry" />
        </mxCell>
        <mxCell id="G1r1ogDtnRM8wa2x4b39-47" value="2" style="rounded=0;whiteSpace=wrap;html=1;" vertex="1" parent="1">
          <mxGeometry x="590" y="790" width="20" height="20" as="geometry" />
        </mxCell>
        <mxCell id="G1r1ogDtnRM8wa2x4b39-49" value="Передать данные по TCP/IP на робота" style="rounded=0;whiteSpace=wrap;html=1;" vertex="1" parent="1">
          <mxGeometry x="910" y="838.48" width="150" height="70" as="geometry" />
        </mxCell>
        <mxCell id="G1r1ogDtnRM8wa2x4b39-50" value="5" style="rounded=0;whiteSpace=wrap;html=1;" vertex="1" parent="1">
          <mxGeometry x="1040" y="888.48" width="20" height="20" as="geometry" />
        </mxCell>
        <mxCell id="G1r1ogDtnRM8wa2x4b39-54" value="Сохраненные &lt;br&gt;шаблоны обработки&amp;nbsp;&lt;br&gt;изображения" style="text;html=1;align=center;verticalAlign=middle;resizable=0;points=[];autosize=1;strokeColor=none;fillColor=none;" vertex="1" parent="1">
          <mxGeometry x="375" y="660" width="140" height="60" as="geometry" />
        </mxCell>
        <mxCell id="G1r1ogDtnRM8wa2x4b39-55" style="edgeStyle=orthogonalEdgeStyle;rounded=0;orthogonalLoop=1;jettySize=auto;html=1;exitX=1;exitY=0.5;exitDx=0;exitDy=0;entryX=0.75;entryY=0;entryDx=0;entryDy=0;" edge="1" parent="1" source="G1r1ogDtnRM8wa2x4b39-56">
          <mxGeometry relative="1" as="geometry">
            <mxPoint x="574" y="740" as="targetPoint" />
          </mxGeometry>
        </mxCell>
        <mxCell id="G1r1ogDtnRM8wa2x4b39-56" value="Получить новые настройки от оператора" style="html=1;whiteSpace=wrap;" vertex="1" parent="1">
          <mxGeometry x="446.5" y="530" width="150" height="70" as="geometry" />
        </mxCell>
        <mxCell id="G1r1ogDtnRM8wa2x4b39-57" value="" style="endArrow=classic;html=1;rounded=0;entryX=0.25;entryY=0;entryDx=0;entryDy=0;" edge="1" parent="1">
          <mxGeometry width="50" height="50" relative="1" as="geometry">
            <mxPoint x="499" y="700" as="sourcePoint" />
            <mxPoint x="499" y="740" as="targetPoint" />
          </mxGeometry>
        </mxCell>
        <mxCell id="G1r1ogDtnRM8wa2x4b39-58" value="" style="endArrow=classic;html=1;rounded=0;entryX=0.25;entryY=1;entryDx=0;entryDy=0;" edge="1" parent="1">
          <mxGeometry width="50" height="50" relative="1" as="geometry">
            <mxPoint x="513.95" y="650" as="sourcePoint" />
            <mxPoint x="513.95" y="600" as="targetPoint" />
          </mxGeometry>
        </mxCell>
        <mxCell id="G1r1ogDtnRM8wa2x4b39-59" value="Оператор" style="text;html=1;align=center;verticalAlign=middle;resizable=0;points=[];autosize=1;strokeColor=none;fillColor=none;" vertex="1" parent="1">
          <mxGeometry x="435" y="608" width="80" height="30" as="geometry" />
        </mxCell>
        <mxCell id="G1r1ogDtnRM8wa2x4b39-60" value="Данные от &lt;br&gt;оператора" style="text;html=1;align=center;verticalAlign=middle;resizable=0;points=[];autosize=1;strokeColor=none;fillColor=none;" vertex="1" parent="1">
          <mxGeometry x="615" y="638" width="80" height="40" as="geometry" />
        </mxCell>
        <mxCell id="G1r1ogDtnRM8wa2x4b39-62" value="Обработанное&lt;br&gt;изображение" style="text;html=1;align=center;verticalAlign=middle;resizable=0;points=[];autosize=1;strokeColor=none;fillColor=none;" vertex="1" parent="1">
          <mxGeometry x="610" y="724.52" width="100" height="40" as="geometry" />
        </mxCell>
        <mxCell id="G1r1ogDtnRM8wa2x4b39-63" value="" style="endArrow=classic;html=1;rounded=0;entryX=0.25;entryY=1;entryDx=0;entryDy=0;" edge="1" parent="1">
          <mxGeometry width="50" height="50" relative="1" as="geometry">
            <mxPoint x="760" y="855" as="sourcePoint" />
            <mxPoint x="760" y="810" as="targetPoint" />
          </mxGeometry>
        </mxCell>
        <mxCell id="G1r1ogDtnRM8wa2x4b39-64" value="Вычислительные&lt;br&gt;ресурсы&amp;nbsp;&lt;br&gt;ЭВМ" style="text;html=1;align=center;verticalAlign=middle;resizable=0;points=[];autosize=1;strokeColor=none;fillColor=none;" vertex="1" parent="1">
          <mxGeometry x="640" y="826.52" width="120" height="60" as="geometry" />
        </mxCell>
        <mxCell id="G1r1ogDtnRM8wa2x4b39-65" value="Координаты&lt;br&gt;обнаруженных&lt;br&gt;объектов" style="text;html=1;align=center;verticalAlign=middle;resizable=0;points=[];autosize=1;strokeColor=none;fillColor=none;" vertex="1" parent="1">
          <mxGeometry x="880" y="730" width="110" height="60" as="geometry" />
        </mxCell>
        <mxCell id="G1r1ogDtnRM8wa2x4b39-161" style="edgeStyle=orthogonalEdgeStyle;rounded=0;orthogonalLoop=1;jettySize=auto;html=1;exitX=1;exitY=0.5;exitDx=0;exitDy=0;entryX=0;entryY=0.5;entryDx=0;entryDy=0;" edge="1" parent="1" source="G1r1ogDtnRM8wa2x4b39-66" target="G1r1ogDtnRM8wa2x4b39-49">
          <mxGeometry relative="1" as="geometry" />
        </mxCell>
        <mxCell id="G1r1ogDtnRM8wa2x4b39-66" value="Обнаружить&lt;br style=&quot;border-color: var(--border-color);&quot;&gt;объекты" style="rounded=0;whiteSpace=wrap;html=1;" vertex="1" parent="1">
          <mxGeometry x="710" y="740" width="150" height="70" as="geometry" />
        </mxCell>
        <mxCell id="G1r1ogDtnRM8wa2x4b39-67" value="4" style="rounded=0;whiteSpace=wrap;html=1;" vertex="1" parent="1">
          <mxGeometry x="840" y="790" width="20" height="20" as="geometry" />
        </mxCell>
        <mxCell id="G1r1ogDtnRM8wa2x4b39-68" value="" style="endArrow=classic;html=1;rounded=0;exitX=1;exitY=0.5;exitDx=0;exitDy=0;entryX=0;entryY=0.5;entryDx=0;entryDy=0;" edge="1" parent="1" source="G1r1ogDtnRM8wa2x4b39-46" target="G1r1ogDtnRM8wa2x4b39-66">
          <mxGeometry width="50" height="50" relative="1" as="geometry">
            <mxPoint x="630" y="771.5200000000001" as="sourcePoint" />
            <mxPoint x="710" y="771.5200000000001" as="targetPoint" />
          </mxGeometry>
        </mxCell>
        <mxCell id="G1r1ogDtnRM8wa2x4b39-81" style="edgeStyle=orthogonalEdgeStyle;rounded=0;orthogonalLoop=1;jettySize=auto;html=1;entryX=0;entryY=0.75;entryDx=0;entryDy=0;" edge="1" parent="1" target="G1r1ogDtnRM8wa2x4b39-84">
          <mxGeometry relative="1" as="geometry">
            <mxPoint x="1960" y="1355" as="sourcePoint" />
            <Array as="points">
              <mxPoint x="1960" y="1485" />
              <mxPoint x="1620" y="1485" />
              <mxPoint x="1620" y="1338" />
            </Array>
          </mxGeometry>
        </mxCell>
        <mxCell id="G1r1ogDtnRM8wa2x4b39-165" style="edgeStyle=orthogonalEdgeStyle;rounded=0;orthogonalLoop=1;jettySize=auto;html=1;exitX=1;exitY=0.5;exitDx=0;exitDy=0;entryX=0;entryY=0.5;entryDx=0;entryDy=0;" edge="1" parent="1" source="G1r1ogDtnRM8wa2x4b39-82" target="G1r1ogDtnRM8wa2x4b39-99">
          <mxGeometry relative="1" as="geometry" />
        </mxCell>
        <mxCell id="G1r1ogDtnRM8wa2x4b39-167" style="edgeStyle=orthogonalEdgeStyle;rounded=0;orthogonalLoop=1;jettySize=auto;html=1;exitX=1;exitY=0.5;exitDx=0;exitDy=0;" edge="1" parent="1" source="G1r1ogDtnRM8wa2x4b39-82">
          <mxGeometry relative="1" as="geometry">
            <mxPoint x="2560.0000000000005" y="1429.913043478261" as="targetPoint" />
          </mxGeometry>
        </mxCell>
        <mxCell id="G1r1ogDtnRM8wa2x4b39-82" value="Перейти в систему координат работа" style="html=1;whiteSpace=wrap;" vertex="1" parent="1">
          <mxGeometry x="2100" y="1394.52" width="150" height="70" as="geometry" />
        </mxCell>
        <mxCell id="G1r1ogDtnRM8wa2x4b39-115" style="edgeStyle=orthogonalEdgeStyle;rounded=0;orthogonalLoop=1;jettySize=auto;html=1;exitX=1;exitY=0.5;exitDx=0;exitDy=0;entryX=0;entryY=0.5;entryDx=0;entryDy=0;" edge="1" parent="1" source="G1r1ogDtnRM8wa2x4b39-84" target="G1r1ogDtnRM8wa2x4b39-86">
          <mxGeometry relative="1" as="geometry" />
        </mxCell>
        <mxCell id="G1r1ogDtnRM8wa2x4b39-84" value="Обнаружить границы деталей" style="html=1;whiteSpace=wrap;" vertex="1" parent="1">
          <mxGeometry x="1640" y="1285" width="150" height="70" as="geometry" />
        </mxCell>
        <mxCell id="G1r1ogDtnRM8wa2x4b39-85" style="edgeStyle=orthogonalEdgeStyle;rounded=0;orthogonalLoop=1;jettySize=auto;html=1;exitX=1;exitY=0.5;exitDx=0;exitDy=0;entryX=0;entryY=0.5;entryDx=0;entryDy=0;" edge="1" parent="1" source="G1r1ogDtnRM8wa2x4b39-86" target="G1r1ogDtnRM8wa2x4b39-82">
          <mxGeometry relative="1" as="geometry" />
        </mxCell>
        <mxCell id="G1r1ogDtnRM8wa2x4b39-86" value="Отследить деталь на нескольких кадрах" style="html=1;whiteSpace=wrap;" vertex="1" parent="1">
          <mxGeometry x="1880" y="1285" width="150" height="70" as="geometry" />
        </mxCell>
        <mxCell id="G1r1ogDtnRM8wa2x4b39-87" value="1" style="rounded=0;whiteSpace=wrap;html=1;" vertex="1" parent="1">
          <mxGeometry x="1770" y="1335" width="20" height="20" as="geometry" />
        </mxCell>
        <mxCell id="G1r1ogDtnRM8wa2x4b39-88" value="3" style="rounded=0;whiteSpace=wrap;html=1;" vertex="1" parent="1">
          <mxGeometry x="2230" y="1444.52" width="20" height="20" as="geometry" />
        </mxCell>
        <mxCell id="G1r1ogDtnRM8wa2x4b39-89" value="2" style="rounded=0;whiteSpace=wrap;html=1;" vertex="1" parent="1">
          <mxGeometry x="2010" y="1335" width="20" height="20" as="geometry" />
        </mxCell>
        <mxCell id="G1r1ogDtnRM8wa2x4b39-90" value="" style="endArrow=classic;html=1;rounded=0;" edge="1" parent="1">
          <mxGeometry width="50" height="50" relative="1" as="geometry">
            <mxPoint x="2200" y="1464.52" as="sourcePoint" />
            <mxPoint x="2200" y="1509.52" as="targetPoint" />
          </mxGeometry>
        </mxCell>
        <mxCell id="G1r1ogDtnRM8wa2x4b39-91" value="TCP/IP" style="text;html=1;align=center;verticalAlign=middle;resizable=0;points=[];autosize=1;strokeColor=none;fillColor=none;" vertex="1" parent="1">
          <mxGeometry x="2200" y="1467.54" width="60" height="30" as="geometry" />
        </mxCell>
        <mxCell id="G1r1ogDtnRM8wa2x4b39-92" value="Обработанное&lt;br&gt;изображение" style="text;html=1;align=center;verticalAlign=middle;resizable=0;points=[];autosize=1;strokeColor=none;fillColor=none;" vertex="1" parent="1">
          <mxGeometry x="1510" y="1300" width="100" height="40" as="geometry" />
        </mxCell>
        <mxCell id="G1r1ogDtnRM8wa2x4b39-93" value="" style="endArrow=classic;html=1;rounded=0;entryX=0;entryY=0.5;entryDx=0;entryDy=0;" edge="1" parent="1" target="G1r1ogDtnRM8wa2x4b39-84">
          <mxGeometry width="50" height="50" relative="1" as="geometry">
            <mxPoint x="1610" y="1320" as="sourcePoint" />
            <mxPoint x="1640" y="1323.95" as="targetPoint" />
          </mxGeometry>
        </mxCell>
        <mxCell id="G1r1ogDtnRM8wa2x4b39-96" value="Вычислительные&lt;br&gt;ресурсы&amp;nbsp;&lt;br&gt;ЭВМ" style="text;html=1;align=center;verticalAlign=middle;resizable=0;points=[];autosize=1;strokeColor=none;fillColor=none;" vertex="1" parent="1">
          <mxGeometry x="1776.5" y="1425" width="120" height="60" as="geometry" />
        </mxCell>
        <mxCell id="G1r1ogDtnRM8wa2x4b39-97" value="" style="endArrow=classic;html=1;rounded=0;entryX=0.25;entryY=1;entryDx=0;entryDy=0;" edge="1" parent="1" target="G1r1ogDtnRM8wa2x4b39-86">
          <mxGeometry width="50" height="50" relative="1" as="geometry">
            <mxPoint x="1840" y="1425" as="sourcePoint" />
            <mxPoint x="1837" y="1375" as="targetPoint" />
            <Array as="points">
              <mxPoint x="1840" y="1375" />
              <mxPoint x="1918" y="1375" />
            </Array>
          </mxGeometry>
        </mxCell>
        <mxCell id="G1r1ogDtnRM8wa2x4b39-98" value="" style="endArrow=classic;html=1;rounded=0;entryX=0.75;entryY=1;entryDx=0;entryDy=0;" edge="1" parent="1" target="G1r1ogDtnRM8wa2x4b39-84">
          <mxGeometry width="50" height="50" relative="1" as="geometry">
            <mxPoint x="1840" y="1375" as="sourcePoint" />
            <mxPoint x="1670" y="1375" as="targetPoint" />
            <Array as="points">
              <mxPoint x="1753" y="1375" />
            </Array>
          </mxGeometry>
        </mxCell>
        <mxCell id="G1r1ogDtnRM8wa2x4b39-125" style="edgeStyle=orthogonalEdgeStyle;rounded=0;orthogonalLoop=1;jettySize=auto;html=1;exitX=1;exitY=0.5;exitDx=0;exitDy=0;entryX=0.5;entryY=0;entryDx=0;entryDy=0;" edge="1" parent="1" source="G1r1ogDtnRM8wa2x4b39-99" target="G1r1ogDtnRM8wa2x4b39-84">
          <mxGeometry relative="1" as="geometry">
            <Array as="points">
              <mxPoint x="2520" y="1527" />
              <mxPoint x="2520" y="1190" />
              <mxPoint x="1715" y="1190" />
            </Array>
          </mxGeometry>
        </mxCell>
        <mxCell id="G1r1ogDtnRM8wa2x4b39-99" value="Сравнить статистику &lt;br&gt;с БД" style="html=1;whiteSpace=wrap;" vertex="1" parent="1">
          <mxGeometry x="2312" y="1491.52" width="150" height="70" as="geometry" />
        </mxCell>
        <mxCell id="G1r1ogDtnRM8wa2x4b39-100" value="4" style="rounded=0;whiteSpace=wrap;html=1;" vertex="1" parent="1">
          <mxGeometry x="2442" y="1541.52" width="20" height="20" as="geometry" />
        </mxCell>
        <mxCell id="G1r1ogDtnRM8wa2x4b39-101" value="Центры &lt;br&gt;обнаруженных&lt;br&gt;деталей" style="text;html=1;align=center;verticalAlign=middle;resizable=0;points=[];autosize=1;strokeColor=none;fillColor=none;" vertex="1" parent="1">
          <mxGeometry x="1780" y="1243.95" width="110" height="60" as="geometry" />
        </mxCell>
        <mxCell id="G1r1ogDtnRM8wa2x4b39-102" value="Координаты деталей&lt;br&gt;в системе координат&lt;br&gt;робота" style="text;html=1;align=center;verticalAlign=middle;resizable=0;points=[];autosize=1;strokeColor=none;fillColor=none;" vertex="1" parent="1">
          <mxGeometry x="2250" y="1356.52" width="140" height="60" as="geometry" />
        </mxCell>
        <mxCell id="G1r1ogDtnRM8wa2x4b39-103" value="Обновленные&lt;br&gt;координаты" style="text;html=1;align=center;verticalAlign=middle;resizable=0;points=[];autosize=1;strokeColor=none;fillColor=none;" vertex="1" parent="1">
          <mxGeometry x="2060" y="1325.47" width="100" height="40" as="geometry" />
        </mxCell>
        <mxCell id="G1r1ogDtnRM8wa2x4b39-105" value="3" style="rounded=0;whiteSpace=wrap;html=1;" vertex="1" parent="1">
          <mxGeometry x="576.5" y="580" width="20" height="20" as="geometry" />
        </mxCell>
        <mxCell id="G1r1ogDtnRM8wa2x4b39-106" value="" style="endArrow=classic;html=1;rounded=0;" edge="1" parent="1">
          <mxGeometry width="50" height="50" relative="1" as="geometry">
            <mxPoint x="2135.5" y="1013.0300000000002" as="sourcePoint" />
            <mxPoint x="2215.5" y="1013.0300000000002" as="targetPoint" />
          </mxGeometry>
        </mxCell>
        <mxCell id="G1r1ogDtnRM8wa2x4b39-107" value="Обработанное&lt;br&gt;изображение" style="text;html=1;align=center;verticalAlign=middle;resizable=0;points=[];autosize=1;strokeColor=none;fillColor=none;" vertex="1" parent="1">
          <mxGeometry x="1885.5" y="963" width="100" height="40" as="geometry" />
        </mxCell>
        <mxCell id="G1r1ogDtnRM8wa2x4b39-108" value="" style="endArrow=classic;html=1;rounded=0;entryX=0.25;entryY=1;entryDx=0;entryDy=0;" edge="1" parent="1">
          <mxGeometry width="50" height="50" relative="1" as="geometry">
            <mxPoint x="2035.5" y="1093.48" as="sourcePoint" />
            <mxPoint x="2035.5" y="1048.48" as="targetPoint" />
          </mxGeometry>
        </mxCell>
        <mxCell id="G1r1ogDtnRM8wa2x4b39-109" value="Вычислительные&lt;br&gt;ресурсы&amp;nbsp;&lt;br&gt;ЭВМ" style="text;html=1;align=center;verticalAlign=middle;resizable=0;points=[];autosize=1;strokeColor=none;fillColor=none;" vertex="1" parent="1">
          <mxGeometry x="1915.5" y="1065" width="120" height="60" as="geometry" />
        </mxCell>
        <mxCell id="G1r1ogDtnRM8wa2x4b39-110" value="Координаты&lt;br&gt;обнаруженных&lt;br&gt;объектов" style="text;html=1;align=center;verticalAlign=middle;resizable=0;points=[];autosize=1;strokeColor=none;fillColor=none;" vertex="1" parent="1">
          <mxGeometry x="2125.5" y="930" width="110" height="60" as="geometry" />
        </mxCell>
        <mxCell id="G1r1ogDtnRM8wa2x4b39-111" value="Обнаружить&lt;br style=&quot;border-color: var(--border-color);&quot;&gt;объекты" style="rounded=0;whiteSpace=wrap;html=1;" vertex="1" parent="1">
          <mxGeometry x="1985.5" y="978.48" width="150" height="70" as="geometry" />
        </mxCell>
        <mxCell id="G1r1ogDtnRM8wa2x4b39-112" value="4" style="rounded=0;whiteSpace=wrap;html=1;" vertex="1" parent="1">
          <mxGeometry x="2115.5" y="1028.48" width="20" height="20" as="geometry" />
        </mxCell>
        <mxCell id="G1r1ogDtnRM8wa2x4b39-113" value="" style="endArrow=classic;html=1;rounded=0;exitX=1;exitY=0.5;exitDx=0;exitDy=0;entryX=0;entryY=0.5;entryDx=0;entryDy=0;" edge="1" parent="1">
          <mxGeometry width="50" height="50" relative="1" as="geometry">
            <mxPoint x="1885.5" y="1012.8600000000001" as="sourcePoint" />
            <mxPoint x="1985.5" y="1012.8600000000001" as="targetPoint" />
          </mxGeometry>
        </mxCell>
        <mxCell id="G1r1ogDtnRM8wa2x4b39-120" value="" style="endArrow=classic;html=1;rounded=0;" edge="1" parent="1">
          <mxGeometry width="50" height="50" relative="1" as="geometry">
            <mxPoint x="2430" y="1446.52" as="sourcePoint" />
            <mxPoint x="2430" y="1491.52" as="targetPoint" />
          </mxGeometry>
        </mxCell>
        <mxCell id="G1r1ogDtnRM8wa2x4b39-121" value="Данные с базы&lt;br&gt;данных" style="text;html=1;align=center;verticalAlign=middle;resizable=0;points=[];autosize=1;strokeColor=none;fillColor=none;" vertex="1" parent="1">
          <mxGeometry x="2320" y="1446.52" width="110" height="40" as="geometry" />
        </mxCell>
        <mxCell id="G1r1ogDtnRM8wa2x4b39-124" value="Результаты&lt;br&gt;сравнения&lt;br&gt;и параметры &lt;br&gt;корректировки/&lt;br&gt;сообщения &lt;br&gt;оператору" style="text;html=1;align=center;verticalAlign=middle;resizable=0;points=[];autosize=1;strokeColor=none;fillColor=none;" vertex="1" parent="1">
          <mxGeometry x="2405.5" y="1248.95" width="110" height="100" as="geometry" />
        </mxCell>
        <mxCell id="G1r1ogDtnRM8wa2x4b39-128" value="Захватить&lt;br&gt;&amp;nbsp;изображение" style="rounded=0;whiteSpace=wrap;html=1;" vertex="1" parent="1">
          <mxGeometry x="250" y="1263.95" width="150" height="70" as="geometry" />
        </mxCell>
        <mxCell id="G1r1ogDtnRM8wa2x4b39-129" value="1" style="rounded=0;whiteSpace=wrap;html=1;" vertex="1" parent="1">
          <mxGeometry x="380" y="1313.95" width="20" height="20" as="geometry" />
        </mxCell>
        <mxCell id="G1r1ogDtnRM8wa2x4b39-130" value="" style="endArrow=classic;html=1;rounded=0;entryX=0.25;entryY=1;entryDx=0;entryDy=0;" edge="1" parent="1">
          <mxGeometry width="50" height="50" relative="1" as="geometry">
            <mxPoint x="274.6" y="1383.95" as="sourcePoint" />
            <mxPoint x="274.6" y="1333.95" as="targetPoint" />
          </mxGeometry>
        </mxCell>
        <mxCell id="G1r1ogDtnRM8wa2x4b39-131" value="Камера" style="text;html=1;align=center;verticalAlign=middle;resizable=0;points=[];autosize=1;strokeColor=none;fillColor=none;" vertex="1" parent="1">
          <mxGeometry x="200" y="1365.47" width="70" height="30" as="geometry" />
        </mxCell>
        <mxCell id="G1r1ogDtnRM8wa2x4b39-132" value="" style="endArrow=classic;html=1;rounded=0;entryX=0;entryY=0.5;entryDx=0;entryDy=0;exitX=1;exitY=0.5;exitDx=0;exitDy=0;" edge="1" parent="1">
          <mxGeometry width="50" height="50" relative="1" as="geometry">
            <mxPoint x="400" y="1298.33" as="sourcePoint" />
            <mxPoint x="480" y="1298.33" as="targetPoint" />
          </mxGeometry>
        </mxCell>
        <mxCell id="G1r1ogDtnRM8wa2x4b39-133" value="Оригинальное&lt;br&gt;изображение" style="text;html=1;align=center;verticalAlign=middle;resizable=0;points=[];autosize=1;strokeColor=none;fillColor=none;" vertex="1" parent="1">
          <mxGeometry x="410" y="1240" width="100" height="40" as="geometry" />
        </mxCell>
        <mxCell id="G1r1ogDtnRM8wa2x4b39-134" value="" style="endArrow=classic;html=1;rounded=0;entryX=0.25;entryY=1;entryDx=0;entryDy=0;" edge="1" parent="1">
          <mxGeometry width="50" height="50" relative="1" as="geometry">
            <mxPoint x="829.9999999999999" y="1435" as="sourcePoint" />
            <mxPoint x="829.9999999999999" y="1385" as="targetPoint" />
          </mxGeometry>
        </mxCell>
        <mxCell id="G1r1ogDtnRM8wa2x4b39-135" value="Оператор" style="text;html=1;align=center;verticalAlign=middle;resizable=0;points=[];autosize=1;strokeColor=none;fillColor=none;" vertex="1" parent="1">
          <mxGeometry x="750" y="1416.52" width="80" height="30" as="geometry" />
        </mxCell>
        <mxCell id="G1r1ogDtnRM8wa2x4b39-136" value="" style="endArrow=classic;html=1;rounded=0;entryX=0;entryY=0.5;entryDx=0;entryDy=0;exitX=1;exitY=0.5;exitDx=0;exitDy=0;" edge="1" parent="1" target="G1r1ogDtnRM8wa2x4b39-137">
          <mxGeometry width="50" height="50" relative="1" as="geometry">
            <mxPoint x="700" y="1350" as="sourcePoint" />
            <mxPoint x="780" y="1349.8700000000001" as="targetPoint" />
          </mxGeometry>
        </mxCell>
        <mxCell id="G1r1ogDtnRM8wa2x4b39-137" value="Предобработать изображение" style="rounded=0;whiteSpace=wrap;html=1;" vertex="1" parent="1">
          <mxGeometry x="780" y="1315" width="150" height="70" as="geometry" />
        </mxCell>
        <mxCell id="G1r1ogDtnRM8wa2x4b39-138" value="2" style="rounded=0;whiteSpace=wrap;html=1;" vertex="1" parent="1">
          <mxGeometry x="910" y="1365" width="20" height="20" as="geometry" />
        </mxCell>
        <mxCell id="G1r1ogDtnRM8wa2x4b39-139" value="Сохраненные &lt;br&gt;шаблоны обработки&amp;nbsp;&lt;br&gt;изображения" style="text;html=1;align=center;verticalAlign=middle;resizable=0;points=[];autosize=1;strokeColor=none;fillColor=none;" vertex="1" parent="1">
          <mxGeometry x="695" y="1235" width="140" height="60" as="geometry" />
        </mxCell>
        <mxCell id="G1r1ogDtnRM8wa2x4b39-140" style="edgeStyle=orthogonalEdgeStyle;rounded=0;orthogonalLoop=1;jettySize=auto;html=1;entryX=0.75;entryY=0;entryDx=0;entryDy=0;" edge="1" parent="1">
          <mxGeometry relative="1" as="geometry">
            <mxPoint x="909.26" y="1315" as="targetPoint" />
            <mxPoint x="909.26" y="1270" as="sourcePoint" />
          </mxGeometry>
        </mxCell>
        <mxCell id="G1r1ogDtnRM8wa2x4b39-141" value="" style="endArrow=classic;html=1;rounded=0;entryX=0.25;entryY=0;entryDx=0;entryDy=0;" edge="1" parent="1">
          <mxGeometry width="50" height="50" relative="1" as="geometry">
            <mxPoint x="819" y="1275" as="sourcePoint" />
            <mxPoint x="819" y="1315" as="targetPoint" />
          </mxGeometry>
        </mxCell>
        <mxCell id="G1r1ogDtnRM8wa2x4b39-142" value="Обработанное&lt;br&gt;изображение" style="text;html=1;align=center;verticalAlign=middle;resizable=0;points=[];autosize=1;strokeColor=none;fillColor=none;" vertex="1" parent="1">
          <mxGeometry x="930" y="1299.52" width="100" height="40" as="geometry" />
        </mxCell>
        <mxCell id="G1r1ogDtnRM8wa2x4b39-143" value="" style="endArrow=classic;html=1;rounded=0;exitX=1;exitY=0.5;exitDx=0;exitDy=0;entryX=0;entryY=0.5;entryDx=0;entryDy=0;" edge="1" parent="1" source="G1r1ogDtnRM8wa2x4b39-137">
          <mxGeometry width="50" height="50" relative="1" as="geometry">
            <mxPoint x="950" y="1346.52" as="sourcePoint" />
            <mxPoint x="1030" y="1350" as="targetPoint" />
          </mxGeometry>
        </mxCell>
        <mxCell id="G1r1ogDtnRM8wa2x4b39-144" value="Данные от &lt;br&gt;оператора" style="text;html=1;align=center;verticalAlign=middle;resizable=0;points=[];autosize=1;strokeColor=none;fillColor=none;" vertex="1" parent="1">
          <mxGeometry x="910" y="1233.95" width="80" height="40" as="geometry" />
        </mxCell>
        <mxCell id="G1r1ogDtnRM8wa2x4b39-146" value="" style="endArrow=classic;html=1;rounded=0;" edge="1" parent="1">
          <mxGeometry width="50" height="50" relative="1" as="geometry">
            <mxPoint x="2430.5" y="1561.52" as="sourcePoint" />
            <mxPoint x="2430.5" y="1606.52" as="targetPoint" />
          </mxGeometry>
        </mxCell>
        <mxCell id="G1r1ogDtnRM8wa2x4b39-147" value="Сигнал о корректировке&lt;br&gt;вибростолом" style="text;html=1;align=center;verticalAlign=middle;resizable=0;points=[];autosize=1;strokeColor=none;fillColor=none;" vertex="1" parent="1">
          <mxGeometry x="2420.5" y="1601.99" width="160" height="40" as="geometry" />
        </mxCell>
        <mxCell id="G1r1ogDtnRM8wa2x4b39-148" value="" style="endArrow=classic;html=1;rounded=0;" edge="1" parent="1">
          <mxGeometry width="50" height="50" relative="1" as="geometry">
            <mxPoint x="2346" y="1561.52" as="sourcePoint" />
            <mxPoint x="2346" y="1606.52" as="targetPoint" />
          </mxGeometry>
        </mxCell>
        <mxCell id="G1r1ogDtnRM8wa2x4b39-149" value="Сигнал о дополнительной&lt;br&gt;корректировке параметров&lt;br&gt;СТЗ" style="text;html=1;align=center;verticalAlign=middle;resizable=0;points=[];autosize=1;strokeColor=none;fillColor=none;" vertex="1" parent="1">
          <mxGeometry x="2235.5" y="1603.04" width="170" height="60" as="geometry" />
        </mxCell>
        <mxCell id="G1r1ogDtnRM8wa2x4b39-150" value="" style="endArrow=classic;html=1;rounded=0;" edge="1" parent="1">
          <mxGeometry width="50" height="50" relative="1" as="geometry">
            <mxPoint x="1160.5" y="1058.48" as="sourcePoint" />
            <mxPoint x="1160.5" y="1103.48" as="targetPoint" />
          </mxGeometry>
        </mxCell>
        <mxCell id="G1r1ogDtnRM8wa2x4b39-151" value="Сигнал о дополнительной&lt;br&gt;корректировке параметров&lt;br&gt;СТЗ" style="text;html=1;align=center;verticalAlign=middle;resizable=0;points=[];autosize=1;strokeColor=none;fillColor=none;" vertex="1" parent="1">
          <mxGeometry x="1050" y="1100" width="170" height="60" as="geometry" />
        </mxCell>
        <mxCell id="G1r1ogDtnRM8wa2x4b39-152" value="" style="endArrow=classic;html=1;rounded=0;" edge="1" parent="1">
          <mxGeometry width="50" height="50" relative="1" as="geometry">
            <mxPoint x="2019" y="933.48" as="sourcePoint" />
            <mxPoint x="2019" y="978.48" as="targetPoint" />
          </mxGeometry>
        </mxCell>
        <mxCell id="G1r1ogDtnRM8wa2x4b39-153" value="Данные с базы&lt;br&gt;данных" style="text;html=1;align=center;verticalAlign=middle;resizable=0;points=[];autosize=1;strokeColor=none;fillColor=none;" vertex="1" parent="1">
          <mxGeometry x="2005.5" y="903.48" width="110" height="40" as="geometry" />
        </mxCell>
        <mxCell id="G1r1ogDtnRM8wa2x4b39-156" value="" style="endArrow=classic;html=1;rounded=0;" edge="1" parent="1">
          <mxGeometry width="50" height="50" relative="1" as="geometry">
            <mxPoint x="743.5" y="695" as="sourcePoint" />
            <mxPoint x="743.5" y="740" as="targetPoint" />
          </mxGeometry>
        </mxCell>
        <mxCell id="G1r1ogDtnRM8wa2x4b39-157" value="Данные с базы&lt;br&gt;данных" style="text;html=1;align=center;verticalAlign=middle;resizable=0;points=[];autosize=1;strokeColor=none;fillColor=none;" vertex="1" parent="1">
          <mxGeometry x="730" y="665" width="110" height="40" as="geometry" />
        </mxCell>
      </root>
    </mxGraphModel>
  </diagram>
</mxfile>
